# xmcd
#
# Track frame offsets: 
#        150
#        14030
#        30062
#        52632
#        73392
#        89300
#        105147
#        120225
#        134495
#        149967
#        164390
#        192385
#
# Disc length: 2807 seconds
#
# Revision: 0
# Processed by: cddbd v1.4PL0 Copyright (c) Steve Scherf et al.
# Submitted via: ExactAudioCopy v0.90b3
#
DISCID=a00af50c
DTITLE=The Marshall Tucker Band - Gospel
DYEAR=1999
DGENRE=Gospel
TTITLE0=Heart And Soul
TTITLE1=Going Down The Road Feeling Bad
TTITLE2=Eye Is On The Sparrow
TTITLE3=Give Up
TTITLE4=Momma Don't Cry Anymore
TTITLE5=Singing With The Saints
TTITLE6=Though My Eyes Are Blind, My Heart Can See
TTITLE7=Only Believe
TTITLE8=Wayfaring Stranger
TTITLE9=He's Always There
TTITLE10=Will The Circle Be Unbroken
TTITLE11=Beauty Of Life
EXTD=
EXTT0=
EXTT1=
EXTT2=
EXTT3=
EXTT4=
EXTT5=
EXTT6=
EXTT7=
EXTT8=
EXTT9=
EXTT10=
EXTT11=
PLAYORDER=
